<?xml version="1.0" standalone="no"?>
<!DOCTYPE svg PUBLIC "-//W3C//DTD SVG 20010904//EN"
 "http://www.w3.org/TR/2001/REC-SVG-20010904/DTD/svg10.dtd">
<svg version="1.0" xmlns="http://www.w3.org/2000/svg"
 width="500.000000pt" height="500.000000pt" viewBox="0 0 500.000000 500.000000"
 preserveAspectRatio="xMidYMid meet">

<g transform="translate(0.000000,500.000000) scale(0.100000,-0.100000)"
fill="#000000" stroke="none">
<path d="M0 2500 l0 -2500 2500 0 2500 0 0 2500 0 2500 -2500 0 -2500 0 0
-2500z m864 444 c3 -9 6 -32 6 -52 l0 -36 -31 30 c-27 26 -38 29 -110 33 l-79
3 0 -278 c0 -154 4 -296 9 -316 l9 -38 -68 0 -67 0 8 43 c4 23 8 165 9 316 l0
273 -79 -3 c-72 -4 -83 -7 -110 -33 l-31 -30 0 45 c0 25 3 49 7 52 3 4 122 7
264 7 225 0 258 -2 263 -16z m681 -1 c-4 -10 -10 -92 -12 -183 l-5 -165 42 48
c48 54 77 72 136 81 44 8 134 -10 134 -26 0 -6 -14 -28 -31 -49 -27 -34 -32
-37 -45 -24 -23 23 -62 29 -104 16 -69 -20 -68 -26 37 -167 52 -71 107 -141
121 -156 l26 -28 -66 0 c-59 0 -66 2 -76 25 -6 14 -44 68 -84 122 l-73 96 -7
-39 c-4 -21 -7 -69 -7 -106 -1 -92 -5 -98 -56 -98 l-44 0 10 32 c11 41 12 550
0 601 l-9 37 60 0 c53 0 59 -2 53 -17z m1335 -278 c58 -159 115 -309 126 -332
l21 -43 -62 0 -63 0 -11 48 c-20 81 -59 149 -99 174 -52 32 -161 33 -212 1
-51 -31 -84 -94 -77 -146 3 -23 8 -50 12 -59 6 -16 1 -18 -44 -18 -28 0 -51 2
-51 5 0 3 9 24 20 45 11 22 65 165 120 317 55 153 102 284 105 291 3 9 21 12
57 10 l53 -3 105 -290z m-1591 41 c43 -23 51 -54 51 -204 0 -75 4 -154 9 -174
l9 -38 -43 0 c-50 0 -55 7 -55 88 l-1 57 -16 -30 c-52 -99 -145 -139 -229 -99
-43 21 -66 62 -66 121 0 88 51 128 162 128 85 0 124 17 141 62 16 43 -11 73
-66 73 -47 0 -77 -10 -138 -48 -42 -26 -51 -23 -80 27 -22 37 -21 38 83 50 92
12 202 5 239 -13z m948 -3 c77 -36 118 -123 88 -186 -19 -41 -44 -56 -128 -78
-38 -10 -77 -25 -88 -35 -17 -16 -18 -19 -4 -34 40 -44 135 -31 184 25 34 39
41 42 41 19 0 -52 -109 -124 -187 -124 -94 0 -183 67 -209 158 -53 182 130
335 303 255z m1022 -158 c25 -102 48 -185 52 -185 3 0 16 38 29 84 22 84 22
85 5 158 -10 40 -24 85 -32 101 l-14 27 54 0 53 0 43 -177 c24 -98 47 -184 50
-191 4 -6 24 53 45 131 l38 144 -20 46 -21 47 56 0 c49 0 54 -2 48 -17 -7 -15
-69 -224 -115 -386 -11 -38 -12 -38 -57 -35 l-46 3 -19 70 c-31 116 -29 117
-68 -32 -11 -43 -11 -43 -58 -43 l-47 0 -49 190 c-27 105 -55 202 -62 216 -8
15 -14 28 -14 30 0 2 24 4 53 4 l52 0 44 -185z m818 159 c47 -30 51 -49 55
-237 l3 -178 -40 3 -40 3 -8 63 -9 64 -15 -29 c-21 -41 -43 -63 -87 -85 -46
-23 -110 -21 -152 7 -53 35 -67 130 -28 190 23 35 88 58 144 50 81 -11 140 26
140 88 0 38 -23 50 -85 45 -39 -3 -70 -14 -107 -37 l-53 -33 -27 33 c-44 52
-42 54 67 68 88 12 213 4 242 -15z m265 -19 c4 -22 31 -109 60 -192 l54 -153
47 133 c51 142 55 169 33 222 l-15 35 56 0 c49 0 54 -2 48 -17 -4 -10 -56
-152 -114 -315 -59 -163 -115 -306 -126 -317 -15 -18 -30 -21 -92 -21 -40 0
-73 3 -73 7 0 3 11 21 24 38 20 26 34 33 71 38 26 2 52 10 58 16 28 28 10 123
-61 331 -39 113 -73 213 -77 223 -7 16 -2 18 46 15 l54 -3 7 -40z m-278 -480
c25 -20 46 -42 46 -49 0 -18 -88 -79 -105 -72 -8 3 -15 16 -15 29 l0 24 -967
6 c-533 4 -1169 7 -1414 7 -245 0 -595 3 -777 7 -321 6 -332 7 -332 26 0 19 8
19 443 13 243 -3 1027 -9 1743 -12 l1301 -6 6 31 c4 17 10 31 15 31 5 0 30
-16 56 -35z"/>
<path d="M2675 2889 c-47 -128 -123 -345 -121 -346 1 -1 24 4 51 12 26 8 62
15 80 15 18 0 54 -7 80 -15 27 -8 50 -13 51 -12 4 4 -121 345 -129 353 -3 4
-9 1 -12 -7z"/>
<path d="M1225 2541 c-6 -6 -39 -14 -75 -20 -53 -8 -70 -16 -92 -41 -16 -17
-28 -39 -28 -51 0 -28 26 -75 45 -83 62 -24 120 17 154 109 29 77 27 116 -4
86z"/>
<path d="M2037 2660 c-54 -43 -58 -123 -9 -213 l25 -47 22 20 c11 11 50 31 86
46 71 28 89 45 89 83 0 92 -143 166 -213 111z"/>
<path d="M4016 2545 c-10 -8 -39 -17 -65 -21 -89 -12 -131 -47 -131 -108 0
-39 37 -76 75 -76 55 0 101 48 126 131 23 77 22 94 -5 74z"/>
</g>
</svg>
