<?xml version="1.0" standalone="no"?>
<!DOCTYPE svg PUBLIC "-//W3C//DTD SVG 20010904//EN"
 "http://www.w3.org/TR/2001/REC-SVG-20010904/DTD/svg10.dtd">
<svg version="1.0" xmlns="http://www.w3.org/2000/svg"
 width="500.000000pt" height="500.000000pt" viewBox="0 0 500.000000 500.000000"
 preserveAspectRatio="xMidYMid meet">

<g transform="translate(0.000000,500.000000) scale(0.100000,-0.100000)"
fill="#000000" stroke="none">
<path d="M370 2941 c0 -10 -3 -34 -6 -52 l-7 -34 32 30 c29 27 40 30 112 34
l80 3 -3 -316 -3 -316 61 0 60 0 -7 53 c-4 28 -8 170 -8 315 l-1 262 73 0 c73
0 103 -11 135 -50 10 -12 12 -6 10 35 l-3 50 -262 3 c-252 2 -263 2 -263 -17z"/>
<path d="M1475 2625 l0 -335 37 0 c20 0 39 4 43 9 3 6 8 54 11 108 3 54 8 104
10 112 5 15 164 -195 164 -216 0 -9 19 -13 64 -13 l65 0 -119 158 -120 157 23
17 c43 33 121 35 148 2 10 -12 16 -8 40 23 16 21 29 43 29 50 0 16 -92 34
-132 26 -56 -10 -107 -42 -139 -86 l-31 -42 4 183 3 182 -50 0 -50 0 0 -335z"/>
<path d="M1102 2720 c-40 -4 -84 -11 -97 -14 l-25 -6 26 -40 c15 -22 29 -40
33 -40 3 0 20 9 36 20 66 45 134 62 182 46 49 -16 35 -93 -21 -120 -20 -9 -58
-15 -102 -14 -38 1 -79 -4 -92 -11 -53 -28 -79 -122 -49 -181 18 -35 74 -70
114 -70 67 0 133 45 167 113 l16 32 0 -41 c0 -23 3 -56 6 -73 6 -29 9 -31 51
-31 39 0 44 2 38 18 -4 9 -10 91 -12 182 -3 91 -9 173 -14 182 -23 43 -125 62
-257 48z m181 -192 c-12 -67 -45 -138 -74 -163 -73 -61 -173 1 -140 87 14 37
52 60 118 70 31 5 65 15 77 23 27 20 26 20 19 -17z"/>
<path d="M2118 2716 c-99 -27 -158 -105 -158 -207 1 -125 96 -219 221 -219 50
0 132 42 164 83 38 50 22 67 -21 23 -45 -46 -98 -63 -148 -46 -77 25 -55 62
53 90 86 22 114 39 131 79 47 114 -101 235 -242 197z m100 -66 c49 -35 62 -57
62 -104 0 -40 -19 -57 -91 -81 -26 -9 -59 -27 -72 -39 -24 -22 -27 -23 -41 -7
-27 30 -46 89 -46 146 0 49 4 60 29 86 41 41 102 41 159 -1z"/>
<path d="M3154 2703 c7 -16 33 -100 56 -188 63 -244 54 -225 105 -225 l44 0
16 52 c8 28 15 55 15 59 0 4 5 20 11 36 l11 28 13 -45 c8 -25 19 -64 25 -88
l11 -43 46 3 46 3 57 200 c31 110 60 208 65 218 6 15 1 17 -45 17 -46 0 -51
-2 -45 -17 30 -70 29 -87 -9 -227 -21 -75 -39 -136 -41 -136 -1 0 -24 85 -51
190 l-49 190 -48 0 c-46 0 -48 -1 -41 -22 4 -13 17 -58 29 -100 l22 -77 -25
-91 c-14 -50 -29 -85 -33 -78 -3 7 -26 93 -50 191 l-43 177 -53 0 -54 0 15
-27z"/>
<path d="M3892 2720 c-40 -4 -84 -11 -98 -14 -25 -7 -25 -7 -7 -37 30 -51 36
-52 93 -17 38 24 66 33 110 36 53 4 59 2 74 -21 19 -29 11 -61 -24 -92 -17
-15 -37 -20 -89 -21 -36 -1 -77 -2 -89 -3 -13 0 -39 -16 -58 -35 -30 -30 -34
-40 -34 -86 0 -62 22 -104 66 -125 80 -38 177 5 227 100 l16 30 1 -57 c0 -81
5 -88 55 -88 l44 0 -10 32 c-5 18 -9 97 -9 176 0 159 -9 191 -57 210 -42 16
-129 21 -211 12z m175 -205 c-8 -55 -49 -138 -79 -159 -36 -26 -93 -21 -117
10 -29 37 -27 77 7 114 21 24 40 33 89 41 34 6 70 17 80 25 26 19 26 19 20
-31z"/>
<path d="M4266 2713 c4 -10 41 -115 81 -233 81 -238 90 -297 51 -324 -12 -9
-39 -16 -58 -16 -35 0 -51 -13 -84 -67 -10 -18 134 -18 157 0 10 7 65 144 126
317 60 168 112 313 116 323 6 15 1 17 -44 17 -28 0 -51 -3 -51 -7 0 -4 7 -26
16 -50 16 -42 16 -42 -29 -170 -25 -70 -49 -137 -53 -147 -6 -15 -23 26 -66
154 -32 96 -58 185 -58 197 0 21 -4 23 -56 23 -50 0 -55 -2 -48 -17z"/>
<path d="M4020 2225 l0 -25 -1760 0 c-1753 0 -1760 0 -1760 -20 0 -20 7 -20
1760 -20 l1760 0 0 -30 c0 -21 5 -30 16 -30 21 0 104 60 104 75 0 15 -83 75
-104 75 -10 0 -16 -9 -16 -25z"/>
</g>
</svg>
